# xmcd
#
# Track frame offsets: 
#        150
#        18562
#        35074
#        55267
#        75580
#        94056
#        110574
#        125569
#        147300
#        168982
#        186044
#
# Disc length: 2747 seconds
#
# Revision: 0
# Processed by: cddbd v1.5.2PL0 Copyright (c) Steve Scherf et al.
# Submitted via: ExactAudioCopy v0.99pb5
#
DISCID=940ab90b
DTITLE=Doobie Twisters - Black or White
DYEAR=1998
DGENRE=Blues
TTITLE0=You're Something
TTITLE1=Wrong Girl
TTITLE2=Little Bit Of Blues
TTITLE3=How Can Love
TTITLE4=Full Moon On Main Street
TTITLE5=Change It
TTITLE6=Bad Seed
TTITLE7=Ashes In My Ashtray
TTITLE8=Actin' Like A Child
TTITLE9=I Don't Want No Woman
TTITLE10=B.B. King
EXTD=
EXTT0=
EXTT1=
EXTT2=
EXTT3=
EXTT4=
EXTT5=
EXTT6=
EXTT7=
EXTT8=
EXTT9=
EXTT10=
PLAYORDER=
